<svg width="24" height="24" viewBox="0 0 24 24" fill="none" xmlns="http://www.w3.org/2000/svg">
<g id="CaretUp">
<path id="Vector" d="M20.031 15.5302C19.9614 15.6 19.8787 15.6553 19.7876 15.693C19.6966 15.7308 19.599 15.7502 19.5004 15.7502C19.4019 15.7502 19.3043 15.7308 19.2132 15.693C19.1222 15.6553 19.0394 15.6 18.9698 15.5302L12.0004 8.55993L5.03104 15.5302C4.89031 15.671 4.69944 15.75 4.50042 15.75C4.30139 15.75 4.11052 15.671 3.96979 15.5302C3.82906 15.3895 3.75 15.1986 3.75 14.9996C3.75 14.8006 3.82906 14.6097 3.96979 14.469L11.4698 6.96899C11.5394 6.89926 11.6222 6.84394 11.7132 6.80619C11.8043 6.76845 11.9019 6.74902 12.0004 6.74902C12.099 6.74902 12.1966 6.76845 12.2876 6.80619C12.3787 6.84394 12.4614 6.89926 12.531 6.96899L20.031 14.469C20.1008 14.5386 20.1561 14.6214 20.1938 14.7124C20.2316 14.8035 20.251 14.9011 20.251 14.9996C20.251 15.0982 20.2316 15.1958 20.1938 15.2868C20.1561 15.3779 20.1008 15.4606 20.031 15.5302Z" fill="white"/>
</g>
</svg>
