<svg width="24" height="25" viewBox="0 0 24 25" fill="none" xmlns="http://www.w3.org/2000/svg">
<g id="CaretDown">
<path id="Vector" d="M20.031 10.031L12.531 17.531C12.4614 17.6008 12.3787 17.6561 12.2876 17.6938C12.1966 17.7316 12.099 17.751 12.0004 17.751C11.9019 17.751 11.8043 17.7316 11.7132 17.6938C11.6222 17.6561 11.5394 17.6008 11.4698 17.531L3.96979 10.031C3.82906 9.89031 3.75 9.69944 3.75 9.50042C3.75 9.30139 3.82906 9.11052 3.96979 8.96979C4.11052 8.82906 4.30139 8.75 4.50042 8.75C4.69944 8.75 4.89031 8.82906 5.03104 8.96979L12.0004 15.9401L18.9698 8.96979C19.0395 8.90011 19.1222 8.84483 19.2132 8.80712C19.3043 8.76941 19.4019 8.75 19.5004 8.75C19.599 8.75 19.6965 8.76941 19.7876 8.80712C19.8786 8.84483 19.9614 8.90011 20.031 8.96979C20.1007 9.03947 20.156 9.1222 20.1937 9.21324C20.2314 9.30429 20.2508 9.40187 20.2508 9.50042C20.2508 9.59896 20.2314 9.69654 20.1937 9.78759C20.156 9.87863 20.1007 9.96136 20.031 10.031Z" fill="white"/>
</g>
</svg>
